<svg xmlns="http://www.w3.org/2000/svg" xmlns:xlink="http://www.w3.org/1999/xlink" viewBox="0 0 88 20"><path d="M 82.5 4.946 C 83.943 4.946 85.176 5.475 86.198 6.532 C 87.221 7.59 87.732 8.89 87.732 10.435 C 87.732 11.965 87.221 13.266 86.198 14.337 C 85.176 15.395 83.943 15.923 82.5 15.923 C 80.903 15.923 79.677 15.332 78.822 14.15 L 78.822 15.652 L 76.553 15.652 L 76.553 1.043 L 78.822 1.043 L 78.822 6.699 C 79.677 5.53 80.903 4.946 82.5 4.946 Z M 79.768 12.835 C 80.398 13.461 81.19 13.774 82.143 13.774 C 83.095 13.774 83.887 13.461 84.517 12.835 C 85.148 12.195 85.463 11.395 85.463 10.435 C 85.463 9.475 85.148 8.682 84.517 8.056 C 83.887 7.416 83.095 7.096 82.143 7.096 C 81.19 7.096 80.398 7.416 79.768 8.056 C 79.137 8.682 78.822 9.475 78.822 10.435 C 78.822 11.395 79.137 12.195 79.768 12.835 Z M 71.419 5.217 L 73.688 5.217 L 73.688 15.652 L 71.419 15.652 L 71.419 14.317 C 70.732 15.388 69.647 15.923 68.161 15.923 C 66.957 15.923 65.983 15.541 65.24 14.776 C 64.498 14.01 64.127 12.96 64.127 11.624 L 64.127 5.217 L 66.396 5.217 L 66.396 11.395 C 66.396 12.174 66.606 12.772 67.027 13.19 C 67.447 13.607 68.021 13.816 68.75 13.816 C 69.548 13.816 70.193 13.572 70.683 13.085 C 71.174 12.584 71.419 11.826 71.419 10.81 Z M 58.916 1.043 L 61.333 1.043 L 61.333 15.652 L 58.916 15.652 L 58.916 9.329 L 52.612 9.329 L 52.612 15.652 L 50.195 15.652 L 50.195 1.043 L 52.612 1.043 L 52.612 7.033 L 58.916 7.033 Z M 46.002 5.217 L 48.419 5.217 L 44.384 15.986 C 43.375 18.685 41.666 19.965 39.256 19.826 L 39.256 17.718 C 39.971 17.76 40.545 17.607 40.98 17.259 C 41.414 16.925 41.771 16.397 42.051 15.673 L 42.156 15.464 L 37.701 5.217 L 40.181 5.217 L 43.312 12.793 Z M 33.805 15.652 L 33.805 0.417 L 36.075 0.417 L 36.075 15.652 Z M 30.834 3.235 C 30.554 3.513 30.217 3.652 29.825 3.652 C 29.433 3.652 29.089 3.513 28.795 3.235 C 28.515 2.943 28.375 2.602 28.375 2.212 C 28.375 1.823 28.515 1.489 28.795 1.21 C 29.06 0.925 29.434 0.765 29.825 0.772 C 30.231 0.772 30.575 0.918 30.855 1.21 C 31.135 1.489 31.275 1.823 31.275 2.212 C 31.275 2.602 31.128 2.943 30.834 3.235 Z M 28.69 15.652 L 28.69 5.217 L 30.96 5.217 L 30.96 15.652 Z M 23.565 5.217 L 25.835 5.217 L 25.835 15.652 L 23.565 15.652 L 23.565 14.15 C 22.711 15.332 21.485 15.923 19.888 15.923 C 18.445 15.923 17.212 15.395 16.189 14.337 C 15.166 13.266 14.655 11.965 14.655 10.435 C 14.655 8.89 15.166 7.59 16.189 6.532 C 17.212 5.475 18.445 4.946 19.888 4.946 C 21.485 4.946 22.711 5.53 23.565 6.699 Z M 17.87 12.835 C 18.501 13.461 19.292 13.774 20.245 13.774 C 21.197 13.774 21.989 13.461 22.62 12.835 C 23.25 12.195 23.565 11.395 23.565 10.435 C 23.565 9.475 23.25 8.682 22.62 8.056 C 21.989 7.416 21.197 7.096 20.245 7.096 C 19.292 7.096 18.501 7.416 17.87 8.056 C 17.24 8.682 16.924 9.475 16.924 10.435 C 16.924 11.395 17.24 12.195 17.87 12.835 Z M 5.937 1.043 C 7.954 1.043 9.628 1.746 10.959 3.151 C 12.304 4.557 12.977 6.289 12.977 8.348 C 12.977 10.393 12.304 12.125 10.959 13.544 C 9.628 14.95 7.954 15.652 5.937 15.652 L 0.158 15.652 L 0.158 1.043 Z M 5.937 13.357 C 7.324 13.357 8.452 12.883 9.32 11.937 C 10.203 10.991 10.644 9.795 10.644 8.348 C 10.644 6.887 10.203 5.69 9.32 4.758 C 8.452 3.812 7.324 3.339 5.937 3.339 L 2.574 3.339 L 2.574 13.357 Z" fill="rgb(250,249,247)"></path></svg>