<svg xmlns="http://www.w3.org/2000/svg" xmlns:xlink="http://www.w3.org/1999/xlink" style="width: 100%; height: 100%" width="24"  height="23" ><defs><svg xmlns="http://www.w3.org/2000/svg" xlink="http://www.w3.org/1999/xlink" viewBox="0 0 24 23" id="svg1607142748"><path d="M 0.101 10.815 L 8.045 0 L 12.545 0 C 18.872 0 24 5.149 24 11.5 C 24 17.851 18.872 23 12.545 23 L 10.429 23 C 13.197 22.404 15.273 19.933 15.273 16.976 C 15.273 13.574 12.526 10.815 9.136 10.815 L 0.101 10.815 Z" fill="#FF4800"></path><path d="M 0 23 L 9.967 23 C 11.919 22.506 13.364 20.732 13.364 18.619 C 13.364 16.124 11.349 14.101 8.864 14.101 L 6.331 14.101 Z" fill="#A2260C"></path><path d="M 6.331 14.101 L 8.864 14.101 C 11.349 14.101 13.364 16.124 13.364 18.619 C 13.364 20.732 11.919 22.506 9.967 23 L 10.429 23 C 13.197 22.404 15.273 19.933 15.273 16.976 C 15.273 13.574 12.525 10.815 9.136 10.815 L 8.669 10.815 Z" fill="#450E03"></path></svg></defs><use href="#svg1607142748"></use></svg>